<svg xmlns="http://www.w3.org/2000/svg" width="715" height="80" viewBox="0 0 715 80">
  <g id="Group_1303" data-name="Group 1303" transform="translate(-132 -1452.5)">
    <text id="Exhibit_passion_and_a_human-centred_approach" data-name="Exhibit passion and a human-centred approach" transform="translate(168 1456)" fill="#222" font-size="22" font-family="Lato-Regular, Lato"><tspan x="0" y="22">Exhibit passion and </tspan><tspan x="0" y="46">a human-centred </tspan><tspan x="0" y="70">approach</tspan></text>
    <text id="Provide_valuable_insights_and_learning_opportunities" data-name="Provide valuable 
insights and learning 
opportunities" transform="translate(430 1478)" fill="#222" font-size="22" font-family="Lato-Regular, Lato"><tspan x="0" y="0">Provide valuable </tspan><tspan x="0" y="24">insights and learning </tspan><tspan x="0" y="48">opportunities</tspan></text>
    <text id="Demonstrate_resilience_and_innovation" data-name="Demonstrate 
resilience and 
innovation" transform="translate(709 1478)" fill="#222" font-size="22" font-family="Lato-Regular, Lato"><tspan x="0" y="0">Demonstrate </tspan><tspan x="0" y="24">resilience and </tspan><tspan x="0" y="48">innovation</tspan></text>
    <g id="Group_1299" data-name="Group 1299" transform="translate(24 18)">
      <circle id="Ellipse_24" data-name="Ellipse 24" cx="13" cy="13" r="13" transform="translate(108 1442)" fill="#7e3f98"/>
      <g id="Group_1297" data-name="Group 1297" transform="translate(113.171 1447.507)">
        <g id="Group_1298" data-name="Group 1298" transform="translate(0 0)">
          <path id="Path_31783" data-name="Path 31783" d="M8.67.522l1.693,3.431a.937.937,0,0,0,.705.513l3.787.551a.938.938,0,0,1,.519,1.6l-2.74,2.671a.936.936,0,0,0-.269.829l.647,3.772a.937.937,0,0,1-1.36.988l-3.388-1.78a.939.939,0,0,0-.872,0l-3.386,1.78a.937.937,0,0,1-1.36-.988l.647-3.772a.939.939,0,0,0-.269-.829L.284,6.615A.938.938,0,0,1,.8,5.016L4.59,4.465A.934.934,0,0,0,5.3,3.953L6.989.522a.938.938,0,0,1,1.681,0" transform="translate(0 0)" fill="#f5d47b"/>
        </g>
      </g>
    </g>
    <g id="Group_1300" data-name="Group 1300" transform="translate(286 18)">
      <circle id="Ellipse_24-2" data-name="Ellipse 24" cx="13" cy="13" r="13" transform="translate(108 1442)" fill="#7e3f98"/>
      <g id="Group_1297-2" data-name="Group 1297" transform="translate(113.171 1447.507)">
        <g id="Group_1298-2" data-name="Group 1298" transform="translate(0 0)">
          <path id="Path_31783-2" data-name="Path 31783" d="M8.67.522l1.693,3.431a.937.937,0,0,0,.705.513l3.787.551a.938.938,0,0,1,.519,1.6l-2.74,2.671a.936.936,0,0,0-.269.829l.647,3.772a.937.937,0,0,1-1.36.988l-3.388-1.78a.939.939,0,0,0-.872,0l-3.386,1.78a.937.937,0,0,1-1.36-.988l.647-3.772a.939.939,0,0,0-.269-.829L.284,6.615A.938.938,0,0,1,.8,5.016L4.59,4.465A.934.934,0,0,0,5.3,3.953L6.989.522a.938.938,0,0,1,1.681,0" transform="translate(0 0)" fill="#f5d47b"/>
        </g>
      </g>
    </g>
    <g id="Group_1301" data-name="Group 1301" transform="translate(567 18)">
      <circle id="Ellipse_24-3" data-name="Ellipse 24" cx="13" cy="13" r="13" transform="translate(108 1442)" fill="#7e3f98"/>
      <g id="Group_1297-3" data-name="Group 1297" transform="translate(113.171 1447.507)">
        <g id="Group_1298-3" data-name="Group 1298" transform="translate(0 0)">
          <path id="Path_31783-3" data-name="Path 31783" d="M8.67.522l1.693,3.431a.937.937,0,0,0,.705.513l3.787.551a.938.938,0,0,1,.519,1.6l-2.74,2.671a.936.936,0,0,0-.269.829l.647,3.772a.937.937,0,0,1-1.36.988l-3.388-1.78a.939.939,0,0,0-.872,0l-3.386,1.78a.937.937,0,0,1-1.36-.988l.647-3.772a.939.939,0,0,0-.269-.829L.284,6.615A.938.938,0,0,1,.8,5.016L4.59,4.465A.934.934,0,0,0,5.3,3.953L6.989.522a.938.938,0,0,1,1.681,0" transform="translate(0 0)" fill="#f5d47b"/>
        </g>
      </g>
    </g>
    <path id="Path_31785" data-name="Path 31785" d="M-23748-12336.989v80" transform="translate(24399 13789.489)" fill="none" stroke="#f5d47b" stroke-width="2"/>
    <path id="Path_31787" data-name="Path 31787" d="M-23748-12336.989v80" transform="translate(24126 13789.489)" fill="none" stroke="#f5d47b" stroke-width="2"/>
  </g>
</svg>
